# Blender 4.0.1
# www.blender.org
mtllib baza.mtl
g baza_Plane.008
v 0.503514 0.364442 -0.988040
v 0.503514 0.364442 0.987800
v 0.500205 0.764782 -0.988040
v 0.679917 0.364442 -0.988040
v 0.676607 0.764782 -0.988040
v 0.711501 0.800579 -0.946447
v 0.678362 0.364442 0.987800
v 0.711430 0.809114 0.945125
v 0.674989 0.772386 0.987800
v 0.711430 0.809114 0.945125
v 0.499838 0.809114 0.945125
v 0.711430 0.809114 0.945125
v 0.687841 0.832556 0.879365
v 0.711431 0.808985 -0.936680
v 0.687841 0.832556 -0.870559
v 0.711431 0.808985 -0.936680
v 0.499839 0.808985 -0.936680
v 0.499644 0.832556 -0.870559
v 0.499644 0.832556 0.879365
v 0.500142 0.772386 0.987800
v 0.679917 0.364442 -0.988040
v 0.714775 0.404571 -0.946447
v 0.714775 0.404571 0.944437
v 0.678362 0.364442 0.987800
v -0.387790 0.750000 1.045623
v -0.387790 0.750000 -1.045863
v 0.398611 0.750000 1.045623
v -0.387790 0.787834 0.935171
v -0.387790 0.800000 0.861425
v 0.398611 0.787834 0.935171
v 0.398611 0.800000 0.861425
v 0.398611 0.800000 -0.861665
v 0.398611 0.787834 -0.935411
v -0.387790 0.800000 -0.861665
v -0.387790 0.787834 -0.935411
v 0.398611 0.750000 -1.045863
v -0.486090 0.250000 1.161817
v -0.486090 0.250000 -1.162057
v 0.496911 0.250000 1.161817
v -0.486090 0.698298 1.161817
v -0.486090 0.698298 -1.162057
v -0.435266 0.750000 1.101742
v 0.496911 0.698298 1.161817
v 0.446088 0.750000 1.101742
v 0.496911 0.698298 -1.162057
v 0.446088 0.750000 -1.101982
v 0.496911 0.250000 -1.162057
v -0.435266 0.750000 -1.101982
v -0.503514 0.364442 -0.988040
v -0.503514 0.364442 0.987800
v -0.500205 0.764782 -0.988040
v -0.679917 0.364442 -0.988040
v -0.676607 0.764782 -0.988040
v -0.711501 0.800579 -0.946447
v -0.678362 0.364442 0.987800
v -0.711430 0.809114 0.945125
v -0.674989 0.772386 0.987800
v -0.711430 0.809114 0.945125
v -0.499838 0.809114 0.945125
v -0.711430 0.809114 0.945125
v -0.687841 0.832556 0.879365
v -0.711431 0.808985 -0.936680
v -0.687841 0.832556 -0.870559
v -0.711431 0.808985 -0.936680
v -0.499839 0.808985 -0.936680
v -0.499644 0.832556 -0.870559
v -0.499644 0.832556 0.879365
v -0.500142 0.772386 0.987800
v -0.679917 0.364442 -0.988040
v -0.714775 0.404571 -0.946447
v -0.714775 0.404571 0.944437
v -0.678362 0.364442 0.987800
v 0.387790 0.750000 1.045623
v 0.387790 0.750000 -1.045863
v -0.398611 0.750000 1.045623
v 0.387790 0.787834 0.935171
v 0.387790 0.800000 0.861425
v -0.398611 0.787834 0.935171
v -0.398611 0.800000 0.861425
v -0.398611 0.800000 -0.861665
v -0.398611 0.787834 -0.935411
v 0.387790 0.800000 -0.861665
v 0.387790 0.787834 -0.935411
v -0.398611 0.750000 -1.045863
v 0.486090 0.250000 1.161817
v 0.486090 0.250000 -1.162057
v -0.496911 0.250000 1.161817
v 0.486090 0.698298 1.161817
v 0.486090 0.698298 -1.162057
v 0.435266 0.750000 1.101742
v -0.496911 0.698298 1.161817
v -0.446088 0.750000 1.101742
v -0.496911 0.698298 -1.162057
v -0.446088 0.750000 -1.101982
v -0.496911 0.250000 -1.162057
v 0.435266 0.750000 -1.101982
vn -0.7606 -0.0057 -0.6492
vn 1.0000 0.0083 -0.0000
vn -0.0000 -0.0000 1.0000
vn -1.0000 -0.0083 -0.0000
vn -0.0000 1.0000 -0.0000
vn -0.0000 -0.7579 -0.6523
vn -0.0000 -0.9419 -0.3358
vn -0.7059 -0.7084 -0.0000
vn -0.0000 -0.9419 0.3358
vn -0.0000 -0.7579 0.6523
vn -0.0000 -1.0000 -0.0000
vn -0.0000 -0.0000 -1.0000
vn -0.7477 0.6640 -0.0003
vn -0.7634 -0.0063 0.6459
vn -1.0000 -0.0000 -0.0000
vn -0.0000 0.9460 0.3241
vn -0.0000 0.9867 0.1628
vn 1.0000 -0.0000 -0.0000
vn -0.0000 0.9867 -0.1628
vn -0.0000 0.9460 -0.3241
vn -0.7131 0.7010 -0.0000
vn -0.0000 0.7579 0.6523
vn 0.7131 0.7010 -0.0000
vn -0.0000 0.7579 -0.6523
vn 0.7606 -0.0057 -0.6492
vn -1.0000 0.0083 -0.0000
vn 1.0000 -0.0083 -0.0000
vn 0.7059 -0.7084 -0.0000
vn 0.7477 0.6640 -0.0003
vn 0.7634 -0.0063 0.6459
vt -0.487168 0.199848
vt -0.487168 0.607792
vt -0.444493 0.644520
vt -0.443805 0.239977
vt 1.488672 0.199848
vt 1.488672 0.600189
vt 1.437312 0.644391
vt 1.371191 0.667963
vt -0.378733 0.667963
vt 0.719942 0.600189
vt 0.723252 0.199848
vt 0.899655 0.199848
vt 0.896345 0.600189
vt 1.447079 0.239977
vt 1.447079 0.635985
vt 0.723252 1.488672
vt 0.723252 -0.487168
vt 0.898099 -0.487168
vt 0.899655 1.488672
vt 0.931168 -0.444493
vt 0.894727 -0.487168
vt 0.719880 -0.487168
vt 0.719576 -0.444493
vt 0.719382 -0.378733
vt 0.907578 -0.378733
vt 0.907578 1.371191
vt 0.931169 1.437312
vt 0.719382 1.371191
vt 0.719577 1.437312
vt 0.719942 1.488672
vt 0.896345 1.488672
vt 0.931238 1.447079
vt 0.719880 0.607792
vt 0.894727 0.607792
vt 0.898099 0.199848
vt 1.546495 0.585406
vt -0.544991 0.585406
vt -0.434539 0.623240
vt -0.360793 0.635406
vt 1.362297 0.635406
vt 1.436043 0.623240
vt -0.168052 1.546495
vt 0.618349 1.546495
vt 0.618349 -0.544991
vt -0.168052 -0.544991
vt 0.618349 -0.434539
vt -0.168052 -0.434539
vt 0.618349 -0.360793
vt -0.168052 -0.360793
vt -0.168052 1.362297
vt 0.618349 1.362297
vt 0.618349 1.436043
vt -0.168052 1.436043
vt 1.662689 0.085406
vt -0.661185 0.085406
vt -0.661185 0.533704
vt 1.662689 0.533704
vt -0.266352 1.662689
vt 0.716649 1.662689
vt 0.716649 -0.661185
vt -0.266352 -0.661185
vt -0.266352 0.085406
vt 0.716649 0.085406
vt 0.716649 0.533704
vt -0.266352 0.533704
vt -0.601110 0.585406
vt 1.602614 0.585406
vt 0.665825 -0.601110
vt -0.215529 -0.601110
vt -0.215529 1.602614
vt 0.665825 1.602614
s 0
g baza_Cyberpunk_Sci_Fi_Panels
usemtl Cyberpunk_Sci_Fi_Panels
f 7/1/1 9/2/1 8/3/1 23/4/1 24/1/1
f 1/5/2 3/6/2 17/7/2 18/8/2 19/9/2 11/3/2 20/2/2 2/1/2
f 3/10/3 1/11/3 4/12/3 5/13/3
f 22/14/4 23/4/4 8/3/4 10/3/4 12/3/4 14/7/4 16/7/4 6/15/4
f 1/16/5 2/17/5 7/18/5 24/18/5 21/19/5 4/19/5
f 8/20/6 9/21/6 20/22/6 11/23/6 10/20/6
f 19/24/7 13/25/7 12/20/7 10/20/7 11/23/7
f 13/25/8 15/26/8 14/27/8 12/20/8
f 14/27/9 15/26/9 18/28/9 17/29/9 16/27/9
f 3/30/10 5/31/10 6/32/10 16/27/10 17/29/10
f 19/24/11 18/28/11 15/26/11 13/25/11
f 2/11/12 20/33/12 9/34/12 7/35/12
f 23/4/13 22/14/13 21/5/13 24/1/13
f 5/6/14 4/5/14 21/5/14 22/14/14 6/15/14
f 26/36/15 25/37/15 28/38/15 29/39/15 34/40/15 35/41/15
f 26/42/11 36/43/11 27/44/11 25/45/11
f 25/45/16 27/44/16 30/46/16 28/47/16
f 28/47/17 30/46/17 31/48/17 29/49/17
f 27/37/18 36/36/18 33/41/18 32/40/18 31/39/18 30/38/18
f 34/50/5 29/49/5 31/48/5 32/51/5
f 33/52/19 35/53/19 34/50/19 32/51/19
f 36/43/20 26/42/20 35/53/20 33/52/20
f 38/54/15 37/55/15 40/56/15 41/57/15
f 38/58/11 47/59/11 39/60/11 37/61/11
f 37/62/3 39/63/3 43/64/3 40/65/3
f 41/57/21 40/56/21 42/66/21 48/67/21
f 40/61/22 43/60/22 44/68/22 42/69/22
f 43/56/23 45/57/23 46/67/23 44/66/23
f 39/55/18 47/54/18 45/57/18 43/56/18
f 45/59/24 41/58/24 48/70/24 46/71/24
f 47/63/12 38/62/12 41/65/12 45/64/12
f 44/68/5 46/71/5 48/70/5 42/69/5
f 55/1/25 72/1/25 71/4/25 56/3/25 57/2/25
f 49/5/26 50/1/26 68/2/26 59/3/26 67/9/26 66/8/26 65/7/26 51/6/26
f 51/10/3 53/13/3 52/12/3 49/11/3
f 70/14/27 54/15/27 64/7/27 62/7/27 60/3/27 58/3/27 56/3/27 71/4/27
f 49/16/5 52/19/5 69/19/5 72/18/5 55/18/5 50/17/5
f 56/20/6 58/20/6 59/23/6 68/22/6 57/21/6
f 67/24/7 59/23/7 58/20/7 60/20/7 61/25/7
f 61/25/28 60/20/28 62/27/28 63/26/28
f 62/27/9 64/27/9 65/29/9 66/28/9 63/26/9
f 51/30/10 65/29/10 64/27/10 54/32/10 53/31/10
f 67/24/11 61/25/11 63/26/11 66/28/11
f 50/11/12 55/35/12 57/34/12 68/33/12
f 71/4/29 72/1/29 69/5/29 70/14/29
f 53/6/30 54/15/30 70/14/30 69/5/30 52/5/30
f 74/36/18 83/41/18 82/40/18 77/39/18 76/38/18 73/37/18
f 74/42/11 73/45/11 75/44/11 84/43/11
f 73/45/16 76/47/16 78/46/16 75/44/16
f 76/47/17 77/49/17 79/48/17 78/46/17
f 75/37/15 78/38/15 79/39/15 80/40/15 81/41/15 84/36/15
f 82/50/5 80/51/5 79/48/5 77/49/5
f 81/52/19 80/51/19 82/50/19 83/53/19
f 84/43/20 81/52/20 83/53/20 74/42/20
f 86/54/18 89/57/18 88/56/18 85/55/18
f 86/58/11 85/61/11 87/60/11 95/59/11
f 85/62/3 88/65/3 91/64/3 87/63/3
f 89/57/23 96/67/23 90/66/23 88/56/23
f 88/61/22 90/69/22 92/68/22 91/60/22
f 91/56/21 92/66/21 94/67/21 93/57/21
f 87/55/15 91/56/15 93/57/15 95/54/15
f 93/59/24 94/71/24 96/70/24 89/58/24
f 95/63/12 93/64/12 89/65/12 86/62/12
f 92/68/5 90/69/5 96/70/5 94/71/5
