# Blender 4.0.1
# www.blender.org
mtllib sine.mtl
g sine_Plane.005
v 0.513849 0.096694 -1.165256
v 0.677100 0.098114 -1.162985
v 0.513849 0.096694 1.139627
v 0.677100 0.098114 1.141328
v 0.518365 0.638910 1.257520
v 0.681615 0.640330 1.259689
v 0.681581 0.636383 -1.289261
v 0.518330 0.634963 -1.291744
v 0.677337 0.785578 -0.994831
v 0.682414 0.736380 -1.186826
v 0.519163 0.734959 -1.189308
v 0.525061 0.784253 -0.997137
v 0.525063 0.783928 0.971986
v 0.519081 0.724988 1.180470
v 0.682332 0.726409 1.182640
v 0.677329 0.785252 0.974020
v 0.515938 0.347606 1.246983
v 0.514346 0.156387 1.181519
v 0.677597 0.157807 1.183220
v 0.679189 0.349022 1.248806
v 0.514184 0.137053 -1.203074
v 0.515976 0.352342 -1.291201
v 0.679227 0.353762 -1.288867
v 0.677435 0.138473 -1.200803
v -0.513849 0.096694 -1.165256
v -0.677100 0.098114 -1.162985
v -0.513849 0.096694 1.139627
v -0.677100 0.098114 1.141328
v -0.518365 0.638910 1.257520
v -0.681615 0.640330 1.259689
v -0.681581 0.636383 -1.289261
v -0.518330 0.634963 -1.291744
v -0.677337 0.785578 -0.994831
v -0.682414 0.736380 -1.186826
v -0.519163 0.734959 -1.189308
v -0.525061 0.784253 -0.997137
v -0.525063 0.783928 0.971986
v -0.519081 0.724988 1.180470
v -0.682332 0.726409 1.182640
v -0.677329 0.785252 0.974020
v -0.515938 0.347606 1.246983
v -0.514346 0.156387 1.181519
v -0.677597 0.157807 1.183220
v -0.679189 0.349022 1.248806
v -0.514184 0.137053 -1.203074
v -0.515976 0.352342 -1.291201
v -0.679227 0.353762 -1.288867
v -0.677435 0.138473 -1.200803
vn -1.0000 0.0013 -0.0000
vn -0.0087 1.0000 -0.0000
vn 0.0119 0.0366 -0.9993
vn 0.0087 -1.0000 -0.0002
vn -0.0044 -0.7156 0.6985
vn 0.0157 -0.6669 -0.7449
vn -0.0161 0.6837 0.7295
vn 0.0047 -0.9687 0.2483
vn 0.0120 -0.9623 -0.2717
vn 0.0035 0.5744 -0.8185
vn 0.0074 0.3241 -0.9460
vn -0.0148 0.0018 0.9999
vn -0.0163 0.3788 0.9253
vn 0.9999 -0.0154 -0.0000
vn 1.0000 0.0013 -0.0000
vn 0.0087 1.0000 -0.0000
vn -0.0119 0.0366 -0.9993
vn -0.0087 -1.0000 -0.0002
vn 0.0044 -0.7156 0.6985
vn -0.0157 -0.6669 -0.7449
vn 0.0161 0.6837 0.7295
vn -0.0047 -0.9687 0.2483
vn -0.0120 -0.9623 -0.2717
vn -0.0035 0.5744 -0.8185
vn -0.0074 0.3241 -0.9460
vn 0.0148 0.0018 0.9999
vn 0.0163 0.3788 0.9253
vn -0.9999 -0.0154 -0.0000
vt 1.138319 0.447831
vt 1.094287 0.340187
vt 1.075378 0.320007
vt -0.076778 0.320007
vt -0.097724 0.349853
vt -0.130518 0.445461
vt -0.135959 0.591115
vt -0.097434 0.634154
vt 0.006876 0.663576
vt 0.991301 0.663739
vt 1.087299 0.639140
vt 1.138516 0.589142
vt 0.457686 1.076514
vt 0.457686 -0.075928
vt 0.539311 -0.076778
vt 0.539311 1.075378
vt 0.458730 0.444753
vt 0.459944 0.590405
vt 0.541569 0.591115
vt 0.540356 0.445461
vt 0.463292 0.007893
vt 0.463292 0.992454
vt 0.539429 0.991301
vt 0.539426 0.006876
vt 0.541968 1.087299
vt 0.460343 1.088540
vt 0.459926 1.139758
vt 0.541552 1.138516
vt 0.460302 0.633444
vt 0.541927 0.634154
vt 0.457686 0.319297
vt 0.539311 0.320007
vt 0.539479 0.340187
vt 0.457853 0.339477
vt 0.541927 -0.097434
vt 0.460302 -0.096349
vt 0.457934 0.349143
vt 0.539559 0.349853
vt 0.459926 0.588431
vt 0.458749 0.447121
vt 0.540375 0.447831
vt 0.541552 0.589142
vt 1.076514 0.319297
vt 1.095423 0.339477
vt 1.139486 0.447121
vt 1.139758 0.588431
vt 1.088540 0.638430
vt 0.992454 0.663077
vt 0.007893 0.662914
vt -0.096349 0.633444
vt -0.134874 0.590405
vt -0.129606 0.444753
vt -0.096874 0.349143
vt -0.075928 0.319297
s 0
g sine_Sci-Fi_Panel
usemtl Sci-Fi_Panel
f 23/1/1 24/2/1 2/3/1 4/4/1 19/5/1 20/6/1 6/7/1 15/8/1 16/9/1 9/10/1 10/11/1 7/12/1
f 1/13/2 3/14/2 4/15/2 2/16/2
f 17/17/3 5/18/3 6/19/3 20/20/3
f 13/21/4 12/22/4 9/23/4 16/24/4
f 10/25/5 11/26/5 8/27/5 7/28/5
f 14/29/6 15/30/6 6/19/6 5/18/6
f 1/31/7 2/32/7 24/33/7 21/34/7
f 9/23/8 12/22/8 11/26/8 10/25/8
f 13/21/9 16/24/9 15/35/9 14/36/9
f 4/32/10 3/31/10 18/37/10 19/38/10
f 17/17/11 20/20/11 19/38/11 18/37/11
f 8/39/12 22/40/12 23/41/12 7/42/12
f 23/41/13 22/40/13 21/34/13 24/33/13
f 1/43/14 21/44/14 22/45/14 8/46/14 11/47/14 12/48/14 13/49/14 14/50/14 5/51/14 17/52/14 18/53/14 3/54/14
f 47/1/15 31/12/15 34/11/15 33/10/15 40/9/15 39/8/15 30/7/15 44/6/15 43/5/15 28/4/15 26/3/15 48/2/15
f 25/13/16 26/16/16 28/15/16 27/14/16
f 41/17/17 44/20/17 30/19/17 29/18/17
f 37/21/18 40/24/18 33/23/18 36/22/18
f 34/25/19 31/28/19 32/27/19 35/26/19
f 38/29/20 29/18/20 30/19/20 39/30/20
f 25/31/21 45/34/21 48/33/21 26/32/21
f 33/23/22 34/25/22 35/26/22 36/22/22
f 37/21/23 38/36/23 39/35/23 40/24/23
f 28/32/24 43/38/24 42/37/24 27/31/24
f 41/17/25 42/37/25 43/38/25 44/20/25
f 32/39/26 31/42/26 47/41/26 46/40/26
f 47/41/27 48/33/27 45/34/27 46/40/27
f 25/43/28 27/54/28 42/53/28 41/52/28 29/51/28 38/50/28 37/49/28 36/48/28 35/47/28 32/46/28 46/45/28 45/44/28
