# Blender 4.0.1
# www.blender.org
mtllib turela_enemy.mtl
o turela
v -0.293148 1.060580 -0.118481
v -0.293148 1.060580 -0.660501
v 0.293148 1.060580 -0.118481
v -0.293188 1.060553 -0.118444
v -0.360694 1.013911 -0.164055
v -0.243851 1.013911 -0.056036
v -0.258979 0.803542 -0.042050
v 0.243851 1.013911 -0.056036
v 0.293188 1.060553 -0.118444
v 0.360694 1.013911 -0.164055
v 0.258979 0.803542 -0.042050
v 0.375822 0.803542 -0.150069
v 0.375822 0.803542 -0.628913
v 0.258979 0.803542 -0.736931
v 0.360694 1.013911 -0.614927
v 0.293188 1.060553 -0.660538
v 0.243851 1.013911 -0.722946
v -0.243851 1.013911 -0.722946
v -0.293188 1.060553 -0.660538
v -0.360694 1.013911 -0.614927
v -0.258979 0.803542 -0.736931
v -0.375822 0.803542 -0.628913
v -0.375822 0.803542 -0.150069
v 0.293148 1.060580 -0.660501
v 0.293148 1.060580 -0.118481
v 0.293148 1.060580 -0.660501
v -0.293148 1.060580 -0.118481
v 0.293188 1.060553 -0.118444
v 0.360694 1.013911 -0.164055
v 0.243851 1.013911 -0.056036
v 0.258979 0.803542 -0.042050
v -0.243851 1.013911 -0.056036
v -0.293188 1.060553 -0.118444
v -0.360694 1.013911 -0.164055
v -0.258979 0.803542 -0.042050
v -0.375822 0.803542 -0.150069
v -0.375822 0.803542 -0.628913
v -0.258979 0.803542 -0.736931
v -0.360694 1.013911 -0.614927
v -0.293188 1.060553 -0.660538
v -0.243851 1.013911 -0.722946
v 0.243851 1.013911 -0.722946
v 0.293188 1.060553 -0.660538
v 0.360694 1.013911 -0.614927
v 0.258979 0.803542 -0.736931
v 0.375822 0.803542 -0.628913
v 0.375822 0.803542 -0.150069
v -0.293148 1.060580 -0.660501
vn -0.0000 1.0000 -0.0000
vn -0.5684 0.8227 -0.0000
vn -0.0000 0.8010 0.5987
vn -0.6563 0.2556 0.7099
vn -0.6756 0.0972 0.7308
vn -0.0000 0.0663 0.9978
vn 0.6563 0.2556 0.7099
vn 0.6756 0.0972 0.7308
vn 0.9974 0.0717 -0.0000
vn 0.6756 0.0972 -0.7308
vn 0.6563 0.2556 -0.7099
vn 0.5684 0.8227 -0.0000
vn -0.0000 0.8010 -0.5987
vn -0.0000 0.0663 -0.9978
vn -0.6563 0.2556 -0.7099
vn -0.6756 0.0972 -0.7308
vn -0.9974 0.0717 -0.0000
vt 0.206852 0.771010
vt 0.206852 0.228990
vt 0.793148 0.228990
vt 0.793148 0.771010
vt 0.206812 0.771047
vt 0.139306 0.725436
vt 0.139306 0.274564
vt 0.206812 0.228953
vt 0.256149 0.166545
vt 0.743851 0.166545
vt 0.793188 0.228953
vt 0.139306 0.535776
vt 0.256149 0.535776
vt 0.206812 0.582418
vt 0.124178 0.325408
vt 0.241021 0.325408
vt 0.758979 0.325408
vt 0.743851 0.535776
vt 0.860694 0.535776
vt 0.793188 0.582418
vt 0.875821 0.325408
vt 0.260578 0.325408
vt 0.739422 0.325408
vt 0.725436 0.535776
vt 0.274564 0.535776
vt 0.743851 0.535776
vt 0.860694 0.535776
vt 0.860694 0.274564
vt 0.860694 0.725436
vt 0.793188 0.771047
vt 0.743851 0.833455
vt 0.256149 0.833455
vt 0.256149 0.535776
vt 0.124178 0.325408
s 0
usemtl Curtain_Wall_CAMP_-_Metal_Column_Silver
f 2/1/1 1/2/1 3/3/1 24/4/1
f 19/5/2 20/6/2 5/7/2 4/8/2 1/2/2 2/1/2
f 4/8/3 6/9/3 8/10/3 9/11/3 3/3/3 1/2/3
f 5/12/4 6/13/4 4/14/4
f 5/12/5 23/15/5 7/16/5 6/13/5
f 7/16/6 11/17/6 8/18/6 6/13/6
f 8/18/7 10/19/7 9/20/7
f 12/21/8 10/19/8 8/18/8 11/17/8
f 12/22/9 13/23/9 15/24/9 10/25/9
f 14/17/10 17/26/10 15/27/10 13/21/10
f 15/27/11 17/26/11 16/20/11
f 9/11/12 10/28/12 15/29/12 16/30/12 24/4/12 3/3/12
f 16/30/13 17/31/13 18/32/13 19/5/13 2/1/13 24/4/13
f 14/17/14 21/16/14 18/33/14 17/26/14
f 18/33/15 20/12/15 19/14/15
f 18/33/16 21/16/16 22/34/16 20/12/16
f 22/23/17 23/22/17 5/25/17 20/24/17
f 26/1/1 48/4/1 27/3/1 25/2/1
f 43/5/12 26/1/12 25/2/12 28/8/12 29/7/12 44/6/12
f 28/8/3 25/2/3 27/3/3 33/11/3 32/10/3 30/9/3
f 29/12/7 28/14/7 30/13/7
f 29/12/8 30/13/8 31/16/8 47/15/8
f 31/16/6 30/13/6 32/18/6 35/17/6
f 32/18/4 33/20/4 34/19/4
f 36/21/5 35/17/5 32/18/5 34/19/5
f 36/22/17 34/25/17 39/24/17 37/23/17
f 38/17/16 37/21/16 39/27/16 41/26/16
f 39/27/15 40/20/15 41/26/15
f 33/11/2 27/3/2 48/4/2 40/30/2 39/29/2 34/28/2
f 40/30/13 48/4/13 26/1/13 43/5/13 42/32/13 41/31/13
f 38/17/14 41/26/14 42/33/14 45/16/14
f 42/33/11 43/14/11 44/12/11
f 42/33/10 44/12/10 46/34/10 45/16/10
f 46/23/9 44/24/9 29/25/9 47/22/9
