# Blender 4.0.1
# www.blender.org
mtllib tree_2.mtl
g Plane.001_Plane.002
v -0.487678 0.000000 0.487678
v 0.487678 0.000000 0.487678
v -0.487678 0.000000 -0.487678
v 0.487678 0.000000 -0.487678
v -0.487678 1.839763 0.487678
v 0.487678 1.839763 0.487678
v -0.487678 1.839763 -0.487678
v 0.487678 1.839763 -0.487678
v -0.487678 3.241882 0.487678
v 0.487678 3.241882 0.487678
v -0.487678 3.241882 -0.487678
v 0.487678 3.241882 -0.487678
vn -0.0000 -1.0000 -0.0000
vn 1.0000 -0.0000 -0.0000
vn -1.0000 -0.0000 -0.0000
vn -0.0000 -0.0000 -1.0000
vn -0.0000 -0.0000 1.0000
vn -0.0000 1.0000 -0.0000
vt 0.012322 0.012322
vt 0.012322 0.987678
vt 0.987678 0.987678
vt 0.987678 0.012322
vt 0.012322 -1.208470
vt 0.987678 -1.208470
vt 0.987678 0.631293
vt 0.012322 0.631293
vt 0.012322 2.033412
vt 0.987678 2.033412
s 0
g Plane.001_tree_bark_03
usemtl tree_bark_03
f 1/1/1 3/2/1 4/3/1 2/4/1
f 2/5/2 4/6/2 8/7/2 6/8/2
f 3/6/3 1/5/3 5/8/3 7/7/3
f 4/6/4 3/5/4 7/8/4 8/7/4
f 1/5/5 2/6/5 6/7/5 5/8/5
f 8/7/4 7/8/4 11/9/4 12/10/4
f 5/8/5 6/7/5 10/10/5 9/9/5
f 6/8/2 8/7/2 12/10/2 10/9/2
f 7/7/3 5/8/3 9/9/3 11/10/3
f 11/2/6 9/1/6 10/4/6 12/3/6
g Plane_Plane.001
v -0.675356 3.197246 0.618925
v 0.738410 3.197246 0.618925
v -0.675356 3.197246 -0.455433
v 0.738410 3.197246 -0.455433
v -2.000490 3.185753 1.639692
v 2.063543 3.185753 1.639692
v -2.000490 3.185753 -1.448674
v 2.063543 3.185753 -1.448674
v -2.000490 3.686154 -1.448674
v -2.000490 3.686154 1.639692
v 2.063543 3.686154 1.639692
v 2.063543 3.686154 -1.448674
v -1.524549 3.689254 1.285703
v 1.587602 3.689254 1.285703
v -1.524549 3.689254 -1.079302
v 1.587602 3.689254 -1.079302
v -1.524549 4.279803 -1.079302
v -1.524549 4.279803 1.285703
v 1.587602 4.279803 1.285703
v 1.587602 4.279803 -1.079302
v -1.888653 4.270250 1.059655
v -1.888653 5.309593 1.059655
v -1.888653 4.270250 0.173919
v -1.888653 5.309593 0.173919
v -0.723097 4.270250 1.059655
v -0.723097 5.309593 1.059655
v -0.723097 4.270250 0.173919
v -0.723097 5.309593 0.173919
v 0.864430 4.291208 0.467439
v 0.864430 5.196370 0.467439
v 0.864430 4.291208 -0.303947
v 0.864430 5.196370 -0.303947
v 1.879511 4.291208 0.467439
v 1.879511 5.196370 0.467439
v 1.879511 4.291208 -0.303947
v 1.879511 5.196370 -0.303947
v -0.834330 4.250826 0.739734
v -0.834330 5.372737 0.739734
v -0.834330 4.250826 -0.576241
v -0.834330 5.372737 -0.576241
v 0.897384 4.250826 0.739734
v 0.897384 5.372737 0.739734
v 0.897384 4.250826 -0.576241
v 0.897384 5.372737 -0.576241
v -1.053805 4.269131 0.055476
v -1.053805 5.451424 0.055476
v -1.053805 4.269131 -0.952084
v -1.053805 5.451424 -0.952084
v 0.272061 4.269131 0.055476
v 0.272061 5.451424 0.055476
v 0.272061 4.269131 -0.952084
v 0.272061 5.451424 -0.952084
v -0.286261 3.666202 1.528198
v -0.286261 4.934582 1.528198
v -0.286261 3.666202 0.624258
v -0.286261 4.934582 0.624258
v 1.182507 3.666202 1.528198
v 1.182507 4.934582 1.528198
v 1.182507 3.666202 0.624258
v 1.182507 4.934582 0.624258
v -0.661637 3.261066 0.097925
v -0.661637 4.867188 0.097925
v -0.661637 3.261066 -1.270825
v -0.661637 4.867188 -1.270825
v 1.139524 3.261066 0.097925
v 1.139524 4.867188 0.097925
v 1.139524 3.261066 -1.270825
v 1.139524 4.867188 -1.270825
v -0.669970 5.333168 0.416205
v -0.669970 6.118092 0.416205
v -0.669970 5.333168 -0.252713
v -0.669970 6.118092 -0.252713
v 0.640060 5.333168 0.416205
v 0.640060 6.118092 0.416205
v 0.640060 5.333168 -0.252713
v 0.640060 6.118092 -0.252713
v -1.921524 3.666415 -0.022758
v -1.921524 4.636260 -0.022758
v -1.921524 3.666415 -0.849268
v -1.921524 4.636260 -0.849268
v -0.833905 3.666415 -0.022758
v -0.833905 4.636260 -0.022758
v -0.833905 3.666415 -0.849268
v -0.833905 4.636260 -0.849268
v -1.754401 3.599441 -1.129881
v -1.754401 4.392028 -1.129881
v -1.754401 3.599441 -1.805331
v -1.754401 4.392028 -1.805331
v -0.865566 3.599441 -1.129881
v -0.865566 4.392028 -1.129881
v -0.865566 3.599441 -1.805331
v -0.865566 4.392028 -1.805331
v 0.872807 3.313085 1.965588
v 0.872807 4.175460 1.965588
v 0.872807 3.313085 1.230665
v 0.872807 4.175460 1.230665
v 1.839905 3.313085 1.965588
v 1.839905 4.175460 1.965588
v 1.839905 3.313085 1.230665
v 1.839905 4.175460 1.230665
v 1.573626 3.318633 -0.455423
v 1.573626 4.210263 -0.455423
v 1.573626 3.318633 -1.215279
v 1.573626 4.210263 -1.215279
v 2.573533 3.318633 -0.455423
v 2.573533 4.210263 -0.455423
v 2.573533 3.318633 -1.215279
v 2.573533 4.210263 -1.215279
v -0.475062 3.086607 -1.230259
v -0.475062 3.990072 -1.230259
v -0.475062 3.086607 -2.000200
v -0.475062 3.990072 -2.000200
v 0.538116 3.086607 -1.230259
v 0.538116 3.990072 -1.230259
v 0.538116 3.086607 -2.000200
v 0.538116 3.990072 -2.000200
v -1.909113 4.208443 0.653046
v -1.909113 3.478154 0.653046
v -1.909113 4.208443 1.275405
v -1.909113 3.478154 1.275405
v -2.728086 4.208443 0.653046
v -2.728086 3.478154 0.653046
v -2.728086 4.208443 1.275405
v -2.728086 3.478154 1.275405
vn -0.0000 1.0000 -0.0000
vn -0.0000 -1.0000 -0.0000
vn -1.0000 -0.0000 -0.0000
vn -0.0000 -0.0000 -1.0000
vn -0.0000 -0.0000 1.0000
vn 1.0000 -0.0000 -0.0000
vt -0.102983 -0.163499
vt 1.310784 -0.163499
vt 1.310784 0.910859
vt -0.102983 0.910859
vt -1.428116 -1.184266
vt -1.428116 1.904099
vt 2.635917 1.904099
vt 2.635917 -1.184266
vt 1.904099 -0.552929
vt -1.184266 -0.552929
vt -1.184266 -0.052528
vt 1.904099 -0.052528
vt 2.635917 -0.552929
vt -1.428116 -0.552929
vt -1.428116 -0.052528
vt 2.635917 -0.052528
vt -0.952175 -0.830277
vt -0.952175 1.534728
vt 2.159976 1.534728
vt 2.159976 -0.830277
vt -0.830277 -0.049428
vt 1.534728 -0.049428
vt 1.534728 0.541121
vt -0.830277 0.541121
vt 2.159976 -0.049428
vt -0.952175 -0.049428
vt -0.952175 0.541121
vt 2.159976 0.541121
vt -0.604230 0.531569
vt -0.604230 1.570911
vt 0.281507 1.570911
vt 0.281507 0.531569
vt -1.316280 0.531569
vt -1.316280 1.570911
vt -0.150724 1.570911
vt -0.150724 0.531569
vt -1.316280 0.281507
vt -0.150724 0.281507
vt -0.150724 -0.604230
vt -1.316280 -0.604230
vt -0.012013 0.552526
vt -0.012013 1.457688
vt 0.759373 1.457688
vt 0.759373 0.552526
vt 1.436803 0.552526
vt 1.436803 1.457688
vt 2.451885 1.457688
vt 2.451885 0.552526
vt 1.436803 0.759373
vt 2.451885 0.759373
vt 2.451885 -0.012013
vt 1.436803 -0.012013
vt -0.284308 0.512144
vt -0.284308 1.634055
vt 1.031667 1.634055
vt 1.031667 0.512144
vt -0.261957 0.512144
vt -0.261957 1.634055
vt 1.469758 1.634055
vt 1.469758 0.512144
vt -0.261957 1.031667
vt 1.469758 1.031667
vt 1.469758 -0.284308
vt -0.261957 -0.284308
vt 0.399950 0.530449
vt 0.399950 1.712742
vt 1.407510 1.712742
vt 1.407510 0.530449
vt -0.481431 0.530449
vt -0.481431 1.712742
vt 0.844435 1.712742
vt 0.844435 0.530449
vt -0.481431 1.407510
vt 0.844435 1.407510
vt 0.844435 0.399950
vt -0.481431 0.399950
vt -1.072773 -0.072480
vt -1.072773 1.195900
vt -0.168833 1.195900
vt -0.168833 -0.072480
vt 0.286113 -0.072480
vt 0.286113 1.195900
vt 1.754880 1.195900
vt 1.754880 -0.072480
vt 0.286113 -0.168833
vt 1.754880 -0.168833
vt 1.754880 -1.072773
vt 0.286113 -1.072773
vt 0.357501 -0.477616
vt 0.357501 1.128506
vt 1.726251 1.128506
vt 1.726251 -0.477616
vt -0.089264 -0.477616
vt -0.089264 1.128506
vt 1.711898 1.128506
vt 1.711898 -0.477616
vt -0.089264 1.726251
vt 1.711898 1.726251
vt 1.711898 0.357501
vt -0.089264 0.357501
vt 0.039220 1.594486
vt 0.039220 2.379410
vt 0.708139 2.379410
vt 0.708139 1.594486
vt -0.097596 1.594486
vt -0.097596 2.379410
vt 1.212434 2.379410
vt 1.212434 1.594486
vt -0.097596 0.708139
vt 1.212434 0.708139
vt 1.212434 0.039220
vt -0.097596 0.039220
vt 0.478184 -0.072267
vt 0.478184 0.897578
vt 1.304694 0.897578
vt 1.304694 -0.072267
vt -1.349150 -0.072267
vt -1.349150 0.897578
vt -0.261531 0.897578
vt -0.261531 -0.072267
vt -1.349150 1.304694
vt -0.261531 1.304694
vt -0.261531 0.478184
vt -1.349150 0.478184
vt 1.585307 -0.139241
vt 1.585307 0.653346
vt 2.260756 0.653346
vt 2.260756 -0.139241
vt -1.182028 -0.139241
vt -1.182028 0.653346
vt -0.293192 0.653346
vt -0.293192 -0.139241
vt -1.182028 2.260756
vt -0.293192 2.260756
vt -0.293192 1.585307
vt -1.182028 1.585307
vt -1.510162 -0.425597
vt -1.510162 0.436778
vt -0.775239 0.436778
vt -0.775239 -0.425597
vt 1.445181 -0.425597
vt 1.445181 0.436778
vt 2.412279 0.436778
vt 2.412279 -0.425597
vt 1.445181 -0.775239
vt 2.412279 -0.775239
vt 2.412279 -1.510162
vt 1.445181 -1.510162
vt 0.910849 -0.420049
vt 0.910849 0.471581
vt 1.670704 0.471581
vt 1.670704 -0.420049
vt 2.146000 -0.420049
vt 2.146000 0.471581
vt 3.145906 0.471581
vt 3.145906 -0.420049
vt 2.146000 1.670704
vt 3.145906 1.670704
vt 3.145906 0.910849
vt 2.146000 0.910849
vt 1.685685 -0.652075
vt 1.685685 0.251390
vt 2.455626 0.251390
vt 2.455626 -0.652075
vt 0.097311 -0.652075
vt 0.097311 0.251390
vt 1.110490 0.251390
vt 1.110490 -0.652075
vt 0.097311 2.455626
vt 1.110490 2.455626
vt 1.110490 1.685685
vt 0.097311 1.685685
vt -0.197621 0.469761
vt -0.197621 -0.260528
vt -0.819979 -0.260528
vt -0.819979 0.469761
vt -1.336740 0.469761
vt -1.336740 -0.260528
vt -2.155712 -0.260528
vt -2.155712 0.469761
vt -1.336740 -0.819979
vt -2.155712 -0.819979
vt -2.155712 -0.197621
vt -1.336740 -0.197621
s 0
g Plane_Leaves_small
usemtl Leaves_small
f 13/11/7 14/12/7 16/13/7 15/14/7
f 17/15/8 19/16/8 20/17/8 18/18/8
f 22/15/7 23/18/7 24/17/7 21/16/7
f 19/19/9 17/20/9 22/21/9 21/22/9
f 20/23/10 19/24/10 21/25/10 24/26/10
f 17/24/11 18/23/11 23/26/11 22/25/11
f 18/20/12 20/19/12 24/22/12 23/21/12
f 25/27/8 27/28/8 28/29/8 26/30/8
f 30/27/7 31/30/7 32/29/7 29/28/7
f 26/31/12 28/32/12 32/33/12 31/34/12
f 27/32/9 25/31/9 30/34/9 29/33/9
f 28/35/10 27/36/10 29/37/10 32/38/10
f 25/36/11 26/35/11 31/38/11 30/37/11
f 33/39/9 34/40/9 36/41/9 35/42/9
f 35/43/10 36/44/10 40/45/10 39/46/10
f 39/42/12 40/41/12 38/40/12 37/39/12
f 37/46/11 38/45/11 34/44/11 33/43/11
f 35/47/8 39/48/8 37/49/8 33/50/8
f 40/48/7 36/47/7 34/50/7 38/49/7
f 41/51/9 42/52/9 44/53/9 43/54/9
f 43/55/10 44/56/10 48/57/10 47/58/10
f 47/54/12 48/53/12 46/52/12 45/51/12
f 45/58/11 46/57/11 42/56/11 41/55/11
f 43/59/8 47/60/8 45/61/8 41/62/8
f 48/60/7 44/59/7 42/62/7 46/61/7
f 49/63/9 50/64/9 52/65/9 51/66/9
f 51/67/10 52/68/10 56/69/10 55/70/10
f 55/66/12 56/65/12 54/64/12 53/63/12
f 53/70/11 54/69/11 50/68/11 49/67/11
f 51/71/8 55/72/8 53/73/8 49/74/8
f 56/72/7 52/71/7 50/74/7 54/73/7
f 57/75/9 58/76/9 60/77/9 59/78/9
f 59/79/10 60/80/10 64/81/10 63/82/10
f 63/78/12 64/77/12 62/76/12 61/75/12
f 61/82/11 62/81/11 58/80/11 57/79/11
f 59/83/8 63/84/8 61/85/8 57/86/8
f 64/84/7 60/83/7 58/86/7 62/85/7
f 65/87/9 66/88/9 68/89/9 67/90/9
f 67/91/10 68/92/10 72/93/10 71/94/10
f 71/90/12 72/89/12 70/88/12 69/87/12
f 69/94/11 70/93/11 66/92/11 65/91/11
f 67/95/8 71/96/8 69/97/8 65/98/8
f 72/96/7 68/95/7 66/98/7 70/97/7
f 73/99/9 74/100/9 76/101/9 75/102/9
f 75/103/10 76/104/10 80/105/10 79/106/10
f 79/102/12 80/101/12 78/100/12 77/99/12
f 77/106/11 78/105/11 74/104/11 73/103/11
f 75/107/8 79/108/8 77/109/8 73/110/8
f 80/108/7 76/107/7 74/110/7 78/109/7
f 81/111/9 82/112/9 84/113/9 83/114/9
f 83/115/10 84/116/10 88/117/10 87/118/10
f 87/114/12 88/113/12 86/112/12 85/111/12
f 85/118/11 86/117/11 82/116/11 81/115/11
f 83/119/8 87/120/8 85/121/8 81/122/8
f 88/120/7 84/119/7 82/122/7 86/121/7
f 89/123/9 90/124/9 92/125/9 91/126/9
f 91/127/10 92/128/10 96/129/10 95/130/10
f 95/126/12 96/125/12 94/124/12 93/123/12
f 93/130/11 94/129/11 90/128/11 89/127/11
f 91/131/8 95/132/8 93/133/8 89/134/8
f 96/132/7 92/131/7 90/134/7 94/133/7
f 97/135/9 98/136/9 100/137/9 99/138/9
f 99/139/10 100/140/10 104/141/10 103/142/10
f 103/138/12 104/137/12 102/136/12 101/135/12
f 101/142/11 102/141/11 98/140/11 97/139/11
f 99/143/8 103/144/8 101/145/8 97/146/8
f 104/144/7 100/143/7 98/146/7 102/145/7
f 105/147/9 106/148/9 108/149/9 107/150/9
f 107/151/10 108/152/10 112/153/10 111/154/10
f 111/150/12 112/149/12 110/148/12 109/147/12
f 109/154/11 110/153/11 106/152/11 105/151/11
f 107/155/8 111/156/8 109/157/8 105/158/8
f 112/156/7 108/155/7 106/158/7 110/157/7
f 113/159/9 114/160/9 116/161/9 115/162/9
f 115/163/10 116/164/10 120/165/10 119/166/10
f 119/162/12 120/161/12 118/160/12 117/159/12
f 117/166/11 118/165/11 114/164/11 113/163/11
f 115/167/8 119/168/8 117/169/8 113/170/8
f 120/168/7 116/167/7 114/170/7 118/169/7
f 121/171/9 122/172/9 124/173/9 123/174/9
f 123/175/10 124/176/10 128/177/10 127/178/10
f 127/174/12 128/173/12 126/172/12 125/171/12
f 125/178/11 126/177/11 122/176/11 121/175/11
f 123/179/8 127/180/8 125/181/8 121/182/8
f 128/180/7 124/179/7 122/182/7 126/181/7
f 129/183/9 130/184/9 132/185/9 131/186/9
f 131/187/10 132/188/10 136/189/10 135/190/10
f 135/186/12 136/185/12 134/184/12 133/183/12
f 133/190/11 134/189/11 130/188/11 129/187/11
f 131/191/8 135/192/8 133/193/8 129/194/8
f 136/192/7 132/191/7 130/194/7 134/193/7
